PathFileType	4	(X/Y/Z)	Patient4_TMGait_0pt3_03_left_31.trc.trc
DataRate	CameraRate	NumFrames	NumMarkers	Units	OrigDataRate	OrigDataStartFrame	OrigNumFrames
55.118110236220	55.118110236220	4	33	mm	55.118110236220	53	       141
Frame#	Time	Sacral			L.Shoulder			Chest			R.Shoulder			Neck			R.ASIS			L.ASIS			R.Thigh.Superior			R.Thigh.Lateral			R.Thigh.Inferior			R.Patella			L.Thigh.Superior			L.Thigh.Lateral			L.Thigh.Inferior			L.Patella			L.Shank.Superior			L.Shank.Lateral			L.Shank.Inferior			R.Shank.Superior			R.Shank.Lateral			R.Shank.Inferior			R.Heel			R.Midfoot.Superior			R.Midfoot.Lateral			R.Toe			L.Heel			L.Midfoot.Lateral			L.Midfoot.Superior			L.Toe			L.Elbow			L.Wrist			R.Elbow			R.Wrist			
		X1	Y1	Z1	X2	Y2	Z2	X3	Y3	Z3	X4	Y4	Z4	X5	Y5	Z5	X6	Y6	Z6	X7	Y7	Z7	X8	Y8	Z8	X9	Y9	Z9	X10	Y10	Z10	X11	Y11	Z11	X12	Y12	Z12	X13	Y13	Z13	X14	Y14	Z14	X15	Y15	Z15	X16	Y16	Z16	X17	Y17	Z17	X18	Y18	Z18	X19	Y19	Z19	X20	Y20	Z20	X21	Y21	Z21	X22	Y22	Z22	X23	Y23	Z23	X24	Y24	Z24	X25	Y25	Z25	X26	Y26	Z26	X27	Y27	Z27	X28	Y28	Z28	X29	Y29	Z29	X30	Y30	Z30	X31	Y31	Z31	X32	Y32	Z32	X33	Y33	Z33	

53	55.993428571429	704.896491527496	1008.909722808538	462.768774060213	908.741881455486	1424.057360599258	275.222259883685	1006.809545320549	1349.962560169508	436.617063334790	931.308482007739	1429.349097537345	610.599385924742	893.545771426359	1489.167373235462	432.647560883201	931.824433144809	934.207947822690	580.060362081470	918.465688827650	952.674843467559	306.818047507009	976.539027720862	736.134026177645	556.932689427680	905.606392398951	628.020004935967	628.507863196863	983.187098020355	568.657302724859	550.607460960822	976.799308094590	459.740289682847	575.937522250420	976.684286331333	750.375341407067	347.761421011805	903.072126947177	625.449616177842	289.117008572497	991.440955427275	557.398326337272	359.292885800763	996.494482182573	483.381099845356	368.115669262320	961.899502278027	410.148011005971	360.812809817337	866.836657777420	302.089406750359	306.963012062914	902.850644529709	188.412858048178	380.319175294956	895.698679102507	396.536569181268	588.557967412503	775.242600100281	366.403295168738	654.906679027409	752.822995505858	256.859090676417	610.282008669595	549.561249407902	215.837635665644	588.864945011660	705.642988373645	131.823356039032	631.561107171022	598.091448399430	149.330038552222	662.860404468008	752.817201696008	28.866131676981	656.751566385362	761.742217046661	39.290459364276	416.779619887299	837.818598273297	36.389539269554	338.342184268188	921.805245977377	95.640493197285	368.423764436003	1049.986889685816	40.268650988988	341.617352196210	892.356949772080	1074.636587840324	148.474360006844	979.491933622257	828.055764979790	156.485190439248	945.392460761842	1074.971440649545	722.093197060676	1084.562633729290	857.175091910728	743.787696454591	
54	56.011571428571	704.435193105931	1007.272715395775	458.894078725270	910.574418528124	1423.535886242699	273.739999738336	1006.454013028189	1349.111371551007	436.215993723750	928.464629200635	1427.514645600935	609.633944089558	893.379777214202	1488.118317594864	431.313562685301	931.123108810198	933.694168437319	577.632063345919	919.161140008422	951.747272750870	304.379361363058	982.326252686765	739.046848270955	553.107320304581	916.185273923933	628.959848938378	625.371136576153	995.107516303228	571.722242373850	546.619926018760	991.299679684549	461.530246432455	572.441445009612	977.349964466331	748.964865382296	345.541402101959	903.669018246682	624.011121680165	287.490635396264	991.596966945270	555.969624500851	358.351683756454	996.393992220989	481.758370835283	367.522808876879	960.901176336642	408.435388720659	360.320076091885	864.823826469544	301.319161942268	306.345568448153	898.879829153630	187.515771849207	380.207424211620	908.899376555559	398.469226750015	585.486438727499	787.183781943849	371.942163190103	651.416496838591	762.530278705735	262.368834923982	608.058591041108	559.398875514683	228.784581832787	585.223055937244	711.634931044855	137.405188152661	630.260604715640	604.208651669866	160.367745760506	660.278187822489	752.965141974014	28.666890106773	657.184541599268	756.297891857177	39.307726276655	416.678909341381	832.385416783878	36.342293459285	338.250118817143	916.380044504032	95.547834638690	368.428014069305	1044.560097380458	40.172827553709	341.585595804647	903.431562495263	1074.394102070703	145.155063718895	999.324820099097	831.140877109007	154.769000969363	926.401994010010	1072.090483037918	720.043429349697	1046.961399573042	843.659143062817	743.735830187844	
55	56.029714285714	703.913491706028	1005.562988893728	455.315998984296	912.304852409821	1422.960065193587	272.604036001776	1006.014313464593	1348.203370588641	436.119016074290	925.529355270314	1425.623713637118	608.938569291494	893.119443991630	1487.011014153746	430.312879293729	930.368734871065	933.116066380392	575.454925588961	919.771445056019	950.769384365123	302.164020552748	987.690971416124	742.146825676531	549.391717868768	926.350507258375	630.248799231678	622.371796166471	1006.467299616528	575.208107842874	542.700333498506	1005.378299023579	463.868409064313	568.895416179688	977.961279905091	747.519600133289	343.424841478322	904.139040773225	622.547659961090	285.980614675684	991.681923267973	554.496460214859	357.448397015041	996.247329275111	480.118397811142	366.976055548583	959.858856836658	406.708342319392	359.875691203311	862.772097162569	300.546485726909	305.768427460149	894.900461155993	186.619407957186	380.090392925230	921.908169918786	400.720723610276	582.396151835588	799.000125240771	377.204301325498	647.724442239294	772.712594474413	267.479819268595	605.630813551894	569.764142875897	239.420853259043	581.203613517433	719.021571036856	142.866270165318	628.695429206114	611.640789975469	169.927859655721	657.435028629899	755.830570985194	29.056053943679	657.604845764678	750.849682987815	39.331148740819	416.569742624281	826.954427906107	36.292530871011	338.151149500342	910.957171409801	95.446114151224	368.422572602155	1039.133845529576	40.077828926701	341.550433249241	914.284584096822	1074.403148678876	142.206478466846	1019.488781648238	835.085038994468	153.449127052663	907.639254177367	1070.066073063164	718.160603864681	1009.393426463313	832.698867984711	743.085502563840	
56	56.047857142857	703.344280151924	1003.906065302533	452.032185917894	913.955328573001	1422.395963197759	271.790411581449	1005.519104400259	1347.324563440587	436.309006824875	922.554652051014	1423.811544547849	608.480270924380	892.792060555133	1485.937014822074	429.609942355875	929.549743688778	932.544921110622	573.563125782931	920.338425766359	949.827971963135	300.204501695407	992.487518237755	745.400490170092	545.891417395511	935.835610584849	631.887778614690	619.573996910617	1017.018108810891	579.070171449616	538.962569976728	1018.760542152866	466.749260893764	565.430750837573	978.455748893498	746.071642108118	341.424657367666	904.364172431379	621.128023029602	284.586558284144	991.541442775979	553.010825702728	356.570716192642	995.871533122365	478.513603371713	366.466396498660	958.622368428048	405.032207394773	359.466611939050	860.573959735734	299.798839324064	305.218502556885	890.859223097991	185.758959425582	379.959939342585	934.515256619382	403.245133458299	579.401856629411	810.511408424042	381.931777747375	643.971313956594	783.331340302305	271.901395392455	603.099205593097	580.511569864130	247.046003791673	577.028742029074	727.982132500592	147.836541348671	626.938268929685	620.479350252901	177.349297482759	654.485863007295	761.987582636574	30.023136436133	657.950564903926	745.393225213364	39.359797704987	416.451483354997	821.522911454480	36.240449319898	338.044215667617	905.532380559205	95.338431007546	368.402471364254	1033.705706244945	39.986678428100	341.511642039047	924.836296993170	1074.703537606525	139.640807544798	1039.867769133479	840.003491747277	152.473354634294	889.244980041229	1069.003150753111	716.461106064077	972.394961144140	824.399852802929	741.864064778969	
